<svg xmlns="http://www.w3.org/2000/svg" width="3in" height="3in" viewBox="0 0 216 216"><path fill="teal" d="M89 84.8a6.6 6.6 0 0 0 2.1-.8 24.5 24.5 0 0 0 3.5-2.9l.5-.4a3.4 3.4 0 0 0 1.8 3 3.9 3.9 0 0 1 1.7 1.9 7.1 7.1 0 0 0 1.2 1.8 5.8 5.8 0 0 0 4 1.2 18.9 18.9 0 0 1 5.3.2c1.6.2 3.1.2 4.4-.9l.9-.8a9.4 9.4 0 0 0 1.2 1.8c.9 1.3 2.4 2.3 3.2 3.6a3.8 3.8 0 0 1-.7 4.6 1 1 0 0 0 1.4 1.4c2.5-2.5 2.1-6.1-.2-8.5a14.7 14.7 0 0 1-3.8-5.5 7.9 7.9 0 0 0-1.2-5.3 1 1 0 0 0-1.8.5 14.8 14.8 0 0 0 .9 5.1 3 3 0 0 1-1.8 2c-1.3.5-2.7-.2-4-.3a20.5 20.5 0 0 0-3.5.1 4.1 4.1 0 0 1-3-.8 22.6 22.6 0 0 1-1.6-2.6c-.8-.9-2.2-1.2-2.4-2.4s.9-2.6 1.7-3.6-.4-2.2-1.4-1.4L92.8 80c-1.3 1.2-2.7 2.7-4.6 2.9s-2.8-.2-3.1 1.6a20.9 20.9 0 0 0 0 2.5v3.5a1 1 0 0 0 2 0v-3c0-.5-.3-2.1.1-2.5s1.5-.1 1.8-.2z"/><path fill="teal" d="M99.3 102.8a10.7 10.7 0 0 0 4.7.9 13.5 13.5 0 0 0 4.7-1.8 82.6 82.6 0 0 0 9.1-6.4.8.8 0 0 0 .2-1.1.9.9 0 0 0-.9-1c-5-.1-10.4-.6-15.1-2.3-2.1-.8-3.8-2.5-5.9-3.2s-3.5-.5-5.2-1a.7.7 0 0 0-.7-.3h-.4c-1.2-.6-2.2 1.1-1 1.7l.3.2c.7 1.3.5 2.8.7 4.2a7.2 7.2 0 0 0 1.4 4 19.2 19.2 0 0 0 8.1 6.1zm9-3a11.1 11.1 0 0 1-4.3 1.9 8.5 8.5 0 0 1-4.9-1.2 15.8 15.8 0 0 1-6.8-6 9.5 9.5 0 0 1-.7-3.8l4.5 5.1c1.8 2.1 3.5 3.5 6.4 3.5h6.6zM95.2 89.7c2.3.7 4 2.5 6.3 3.3a46.5 46.5 0 0 0 11.8 2.2 13.7 13.7 0 0 1-2 1.3c-2.3 1.3-5.4.8-8 .8a6.3 6.3 0 0 1-3.6-.7 15.8 15.8 0 0 1-2.8-3L93 89.3zm7.4 16.9l-6-3.4a1.1 1.1 0 0 0-1.4.4 1 1 0 0 0 .4 1.3l6 3.4a1.1 1.1 0 0 0 1.4-.4 1 1 0 0 0-.4-1.3zm14.9-40.9h.5c3.1-.7 6.5-.2 9.7-.1 1.4 0 3.2-.2 4.4.5a6.1 6.1 0 0 1 2.2 3c.5.9 1.8.4 1.9-.5a6.6 6.6 0 0 0-2.6-5.6 11.9 11.9 0 0 0-6.6-2.2c-2.6-.3-5.3-.4-8-.5a2.7 2.7 0 0 0-2.7 1.4 3.8 3.8 0 0 0 .1 3.3.9.9 0 0 0 1.1.7zm1.1-3.3a28.1 28.1 0 0 1 2.9.1l5.8.4a11.3 11.3 0 0 1 3.5.9h-2c-3.6-.1-7.3-.6-10.8 0-.1-.7-.1-1.3.6-1.4z"/><path fill="teal" d="M116.4 70.3a6.1 6.1 0 0 0 3 .2h.1l9.9 2.6h-.6l-3 1.3a6.7 6.7 0 0 1-2.8-.2 10.9 10.9 0 0 1-2.5-1 7.2 7.2 0 0 1-1.9-2 1.1 1.1 0 0 0-1.4-.3 1 1 0 0 0-.4 1.3 12 12 0 0 0 2.4 2.6 10.3 10.3 0 0 0 3.3 1.3 6.6 6.6 0 0 0 3.7.2 27.5 27.5 0 0 0 3.6-1.5 1.1 1.1 0 0 0 .4-1.4.5.5 0 0 0-.4-.3l1.4.3a1 1 0 0 0 .5-1.9l-2.1-.9a10.7 10.7 0 0 1-1.6-1.4 5.9 5.9 0 0 0-3.6-1.8c-2.5-.1-5.1 1.7-7.5.9s-1.7 1.6-.5 2zm7.6-.8a2.8 2.8 0 0 1 1.8.6l-2.1-.6zm-35.2-7.8a83.2 83.2 0 0 0 10.8 4.2 17.5 17.5 0 0 1-6.4-1.4c-.5-.2-1.1.3-1.3.7a1.1 1.1 0 0 0 .7 1.3 19.4 19.4 0 0 0 7.9 1.4 1.1 1.1 0 0 0 1-1 .9.9 0 0 0-.3-.6c.7-.2 1.2-1.2.6-1.7l-2.6-2.2a11.5 11.5 0 0 0-2.6-1.9 11.7 11.7 0 0 0-6.1-.9 1 1 0 0 0-.8.3c-1.1-.4-2 1.2-.9 1.8zm7.7 1l-1-.3-1.9-.8a4.8 4.8 0 0 1 2.1.7zm5.6 7.3a.4.4 0 0 0-.1.3h-.1a1 1 0 0 0-.3 1.4.9.9 0 0 0 1.3.3 2 2 0 0 0 1-1.2 8.3 8.3 0 0 0 .4-1.5 16.1 16.1 0 0 0 .1-3.1c-.1-.5-.4-1-1-1s-1.1.4-1 1a5.7 5.7 0 0 1 0 1.3v1zm-.1.4zm0-.1zm-.1.1z"/><path fill="teal" d="M61.4 177.5a44.2 44.2 0 0 0-4.5-9.6l1.3-.7c1.6-.9 3.2-2 3.7-3.9a3.4 3.4 0 0 0-1.5-3.9c-.8-.7-1.9-1.1-1.4-2.3a19.2 19.2 0 0 1 1.8-3.1c1.2-1.9 2.3-4 2.1-6.3s-2.1-1.3-2 0-1 4-2.1 5.8-2.6 3.4-1.8 5.3 3.1 2 3.1 3.6-2.7 2.9-4.3 3.8h-.1a46.6 46.6 0 0 0-3.9-4.9l-.4-.5a5.7 5.7 0 0 0 1.4-1.3 2.7 2.7 0 0 0 .3-2.5c-.4-1-1.2-1.8-1.1-2.9.2-2.9 3.8-3.5 6.1-4 .7-.1.9-1.2.4-1.7a3.1 3.1 0 0 1-.2-4.5c.6-.7 1.6-.8 2.3-1.5a2.9 2.9 0 0 0 .7-2.5c-.2-1.3-.5-2 .4-3.1s1.4-1.4 1.9-2.2a6.5 6.5 0 0 0 1.2-4c.1.2.1.4.2.6s1.5 2.3 2.1 3.6-.3 5.1-1.2 7.5-1.8 4.6-1 7 2.4.7 1.9-.5.3-4.4 1.2-6.5l1-2.4a16.7 16.7 0 0 0 2 6.7 1 1 0 1 0 1.7-1 16 16 0 0 1-1.9-8.6 18.6 18.6 0 0 1 3.1-8.5c2.8-4.6 6.4-9.4 5.4-15.2-.4-2.5-1.9-4.3-3.8-6a11.3 11.3 0 0 1-2.4-2.5c-.9-1.5-.6-2.9-.2-4.4 1.8-6.6-1.2-13.1-2-19.6a24.3 24.3 0 0 1 1-10.7c1.1-3.3 2.6-6.3 2.4-9.8-.1-1.3-2.1-1.3-2 0 .2 3.3-1.3 6.2-2.4 9.2a23.8 23.8 0 0 0-1.1 5.3 1.1 1.1 0 0 0-.9.4c-3.2 4.5-5.9 9.8-6 15.4s2.6 10 4.5 14.9a16.3 16.3 0 0 1 1.5 7.5c-.1 2.7-1.2 5.2-2.1 7.7a24.4 24.4 0 0 0-1.5 5.9 25.4 25.4 0 0 1-.7-4.7v-.5a1.1 1.1 0 0 0 0-1.4 8.8 8.8 0 0 0-.5-4.3c-.9-1.7-2.7-2.1-4-3.4s-.5-2.1-.5-3.2a13.5 13.5 0 0 0-.7-3.6c-.8-2.1-1.8-4.1-2.4-6.2a7 7 0 0 1 1.2-5.9 13.1 13.1 0 0 0 2.4-5.7 25.8 25.8 0 0 0 .2-6.2 31.9 31.9 0 0 1 .2-6.9C60 72 60 69.3 61 67c1.8-3.9 6.1-6 7.8-10.1 1-2.3 1.6-4.7 3.3-6.7a20.8 20.8 0 0 1 2.1-2.1c-.2 1.1 1.3 1.9 1.8.8a20.6 20.6 0 0 1 2.3-3.7c3.3-2.1 6.8-4 9.8-6.6 1-.8-.5-2.2-1.4-1.4a52.2 52.2 0 0 1-5.4 3.8 13.2 13.2 0 0 0 1.5-3.9 8.6 8.6 0 0 0 0-3.2 15.6 15.6 0 0 1-.6-1.5c.1-.4.9-.7 1.3-.8a14.8 14.8 0 0 1 7.2-1.5 1 1 0 0 0 0-2 17.3 17.3 0 0 0-7.5 1.4 5.4 5.4 0 0 0-2.8 1.9c-.6 1.1.3 2.2.5 3.3s-1 5-2.4 6.9l-1.5 2c-3.6 2.3-6.8 4.8-8.6 8.7S66.8 57 65.2 59s-3.2 3.1-4.6 4.9a13.3 13.3 0 0 0-2.5 6.3c-.3 2.4-.7 4.9-.8 7.3-.1 4.3 1 9.1-1.1 13.1-1.2 2.1-2.6 3.7-2.8 6.2a11.8 11.8 0 0 0 1 5.2c1 2.4 2.4 4.9 2.3 7.6a6.5 6.5 0 0 0 .3 3.1 5.8 5.8 0 0 0 1.8 1.7 12.1 12.1 0 0 1 2.2 1.5 5 5 0 0 1 .7 3.6v1.2a44 44 0 0 0-5.6 10.2c-.4.7-.7 1.5-1.1 2.3a3.5 3.5 0 0 0-.5-.8c-.9-.9-2.4-.6-3.1-1.9a16 16 0 0 1-1.1-4.3l-1.2-5.8a35.7 35.7 0 0 1-1.1-5.5 6 6 0 0 1 2-4.1c1.6-2 2.6-4 2.1-6.6s-2.7-5.6-1.1-8.5c.7-1.2 1.7-2.3 2.3-3.6a14.9 14.9 0 0 0-.1-12.6c-.8-1.6-2.1-3.3-1.9-5.2s1.1-3.4 1.9-4.9a26.5 26.5 0 0 1 6.9-8c1-.8 0-2.5-1-1.7a38.8 38.8 0 0 0-4.2 3.9c.4-2.1.8-4.2 1.3-6.3s1.2-5.2 2.9-7.2 4.4-2.9 6.9-4a11.2 11.2 0 0 0 5.6-4.2c3-4 3.6-9.2 7.6-12.7 1.9-1.7 4.2-2.4 6.5-3.5s3.6-2.3 3.8-4.6a9.5 9.5 0 0 1 .1-2.4 3.2 3.2 0 0 1 1-1.3.9.9 0 0 0 .6 1.2c3.6 1.2 7.1-.1 10.4-1.5a11.2 11.2 0 0 0 4-2.5c1-1.1 1.5-2.7 2.9-3.4a4.8 4.8 0 0 1 3.9 0 6.4 6.4 0 0 1 1.8 1c.5.5.8 1.2 1.3 1.7s2.4.4 3.9.4 2.3 1.7 2.8 2.8 1.4 3.4 2.1 5.1a21.1 21.1 0 0 0 3.3 4.9c.9 1 2.3-.4 1.4-1.4-2.5-2.7-3.4-6.2-5-9.5a7.5 7.5 0 0 0-2.4-3.2c-1.4-.9-2.4-.5-3.9-.4s-1.1-.7-1.7-1.3a6.4 6.4 0 0 0-1.5-1.3 8.1 8.1 0 0 0-3.7-1.2 6 6 0 0 0-3.7.9 6.1 6.1 0 0 0-1.6 1.6c-5.4-2.1-11.1 1-15.6 4.1a5.6 5.6 0 0 0-2.2 2.6c-.4 1.3.2 3-.6 4.3s-4.5 2.4-6.5 3.5a17.6 17.6 0 0 0-5.8 5.4 56 56 0 0 0-3.3 7 11.1 11.1 0 0 1-5.4 5.7c-2.5 1.2-5.3 1.8-7.4 3.7s-3.3 4.9-4.1 7.7-1.5 7.1-2.2 10.6a1.1 1.1 0 0 0 .1.8c-1.5 2.2-3 4.9-3.2 7.6s2.3 5.6 3 8.6a12.3 12.3 0 0 1-1.3 9.2c-.7 1.2-1.6 2.3-2.2 3.5a6.4 6.4 0 0 0-.2 4.1c.6 2.7 2.6 5.5 1 8.2s-3.6 4-3.6 7a27.7 27.7 0 0 0 1 5l1.2 5.9a30.4 30.4 0 0 0 1.3 5.2 4.7 4.7 0 0 0 2.9 2.6c1 .3 1.1 1.1 1.1 2.2v.4a44.8 44.8 0 0 1-3.9 6.1c-2.6 3.5-5.4 7.4-4.6 12a6.2 6.2 0 0 0 .8 2.4c-4.7 13.5-4.3 28.1-9 41.5-.5 1.2 1.5 1.8 1.9.6 4.6-12.9 4.4-26.9 8.4-39.8.5.6 1.1 1.2 1.6 1.9v.2a7.3 7.3 0 0 0 0 3.6c.1.8.1 2.3-.9 2.5a1 1 0 0 0-.2 1.9c1.1.6-.9 2.6-1.3 3.2a4.4 4.4 0 0 0-.6 3.5c.3 1.5 3.6 5.6 1.3 6.7-.7.3-.6 1.1-.2 1.6l2.2 2.6a.8.8 0 0 0 1.2.1 6.3 6.3 0 0 0 1.9 2.1 10.7 10.7 0 0 1 4.3 5.5c.4 1.2 2.3.7 1.9-.5a13.3 13.3 0 0 0-2.8-4.9l-2.1-1.7c-1-.6-1.9-1.3-1.1-2.4s3-2 4.1-3.6a3.2 3.2 0 0 0-.5-4.2 8.1 8.1 0 0 1-1.8-1.9 4.7 4.7 0 0 1-.1-3.5 5.8 5.8 0 0 1 1.5-2.5 41.4 41.4 0 0 1 4.1 8.8c.3 1.3 2.3.7 1.8-.5zm6-55.2a60.3 60.3 0 0 0 2.3-7.2 17.5 17.5 0 0 0-.3-7.2c-1.3-4.8-4.2-9.1-5.2-14s1.3-11.6 4.5-16.5v1.2a63.3 63.3 0 0 0 1.6 9.7c.8 3.5 1.8 7.1.9 10.6s-1.3 5 .5 7.4 4.1 3.2 5.2 5.6c2.5 5.6-2.4 11.4-5.1 16a20 20 0 0 0-2.6 6.9c-.6-1.8-1.9-3.2-2.6-5.1s0-5.1.8-7.4zM104.3 13v.2c-1.3 1.5-3.7 2.3-5.6 2.9s-4.5 1.4-6.8.6h-.2l3.9-2.3c2.6-1.4 5.8-2.3 8.7-1.4zM50.5 144.4l2.3-3c-.4 1-.8 2-1.3 3s1.1 2.1 1.7 1a18.4 18.4 0 0 0 2.3-8.6c.6-1.1 1.1-2.2 1.6-3.3a67.2 67.2 0 0 1 4.8-9.7 25.1 25.1 0 0 0 .4 2.7c.5 2.5 1.1 5.3-.8 7.5a9.5 9.5 0 0 0-2 2.4 4.4 4.4 0 0 0-.3 3.2 1.4 1.4 0 0 1-.8 1.8 5.7 5.7 0 0 0-1.3.8 5.1 5.1 0 0 0-1.1 6.2 8.7 8.7 0 0 0-4.7 2.5 4.7 4.7 0 0 0-.7 5.5c.2.5.7 1 .6 1.6s-.5.7-.8 1l-.3.3a19.3 19.3 0 0 1-2.2-2.8c0-.4-.1-.7-.4-.8-1.8-4 .6-8.1 3-11.3zm1.9 32c.8 1.4 3.6 2.5 1.9 4.3s-3.2 1.9-4.1 3.6c-.1.2-.1.4-.2.6l-1.2-1.4a3.6 3.6 0 0 0 .8-2.7c-.1-1.8-1.1-3.1-1.8-4.7a2.9 2.9 0 0 1 .4-3.2 9.1 9.1 0 0 0 1.3-1.9 3.6 3.6 0 0 0 0-2.5 4.7 4.7 0 0 0 1.1-3.4c0-.8-.3-1.7-.3-2.5l1.7 1.8 2.2 3c-2.2 2.3-3.6 6.1-1.8 9zm129.9 4.6c-1.9-10.8-.4-22-2.6-32.8a53.6 53.6 0 0 0-9.9-21.2c1-.1 1.3-1.7.2-1.9s-.7-2.1-.7-2.9a6.9 6.9 0 0 0-.5-2.4 20.6 20.6 0 0 0-2.9-3.7c-1.4-1.8-1.2-3.4-.4-5.5s1.2-3.5.7-5.3a3.5 3.5 0 0 0-1.2-1.9c-.5-.5-.6-.5-.1-1l1-.8c1.2-1.3 1.4-3.2 1.5-4.9a39.4 39.4 0 0 0-2.1-14 1 1 0 0 0-1-.7 18.3 18.3 0 0 0-.9-10.6 17.1 17.1 0 0 0-1.3-2.3 1.1 1.1 0 0 0-.1-1.9c-3.5-.9-5.2-4.5-5.4-7.8s.9-8.1 1.6-12 1.3-6.5-1.6-8.5-6.7-.4-10-.1c-1.3.1-1.3 2.1 0 2s8.1-2.5 9.8.8c.8 1.6.1 3.8-.2 5.4s-.7 3.9-1 5.8-1 6.6 0 9.8a4.1 4.1 0 0 1-.7-1.1c-1.2-2.6-.9-5.5-1.4-8.2a9 9 0 0 0-3.4-6c-1.1-.7-2.1 1-1.1 1.7 4 2.7 2.3 9 3.9 12.9.8 2.1 2.5 3.4 4.3 4.7a12.2 12.2 0 0 1 4.4 4.9 16.6 16.6 0 0 1 .6 12.4c-1.5 4.6-4.7 8.6-3.9 13.7a18.3 18.3 0 0 1 .7 4.6 14.2 14.2 0 0 1-.8 4.2 21.3 21.3 0 0 0-1.1 7.5l-1.1-.9c-1-.8-2.5.6-1.4 1.4a71 71 0 0 1 18.3 20.3 52.6 52.6 0 0 1 5 12.6 87 87 0 0 1 1.6 16.1c.2 6.1.2 12.1 1.3 18.1l-2.8.8-.4.2-19.2 5.7-11.8 3.6a22.7 22.7 0 0 0-5.8 2.3 200.6 200.6 0 0 1 7.7-36.8 10.4 10.4 0 0 0 4.9-4.8 3.4 3.4 0 0 0-1.6-4.5 1.9 1.9 0 0 1-1.2-2.5 9.2 9.2 0 0 1 1.6-2.7c1.2-1.7 2.2-3.7 1.3-5.7a10.6 10.6 0 0 0-1.7-2 3.3 3.3 0 0 1-.5-3.3c.9-2.3 3.2-3.6 4.9-5.1a7.9 7.9 0 0 0 2.6-5.1c.2-2.3-1.3-3.6-2.9-5a6.3 6.3 0 0 1-2-6.8c.1-.5 0-.8-.3-1a20.2 20.2 0 0 0 4.1-10.9c.1-1.2-2-1.2-2 0a17.7 17.7 0 0 1-4.9 11.1 35 35 0 0 1-4.9 3.7 5.8 5.8 0 0 0-2.7 4.1 3.9 3.9 0 0 0 1.7 3.8c.6.3.8.2.5.7s-.4.6-.5.9a2.5 2.5 0 0 0-.2 2.2c.4.9 1.1 1.4 1.1 2.4a3.7 3.7 0 0 1-1.5 2.7c-1.4 1.4-3.4 2.3-4.5 4.1a4.8 4.8 0 0 0-.6 4.6 5.5 5.5 0 0 0 1.7 1.7 1.8 1.8 0 0 1 .7 2.7c-.9 2-2.8 3.5-4.4 5.1l-5.4 5.3c-1.2 1.3-2.4 2.9-2.3 4.7a2.8 2.8 0 0 0 .9 2c.7.7 1.6 1 2 2.1 1.3 4.1-4.1 6.9-6.3 9.4s-2.6 6.7-.7 10.2 4.7 6 4.6 9.8a1 1 0 0 0 2 0c.1-3.3-1.8-6.1-3.5-8.7s-3.7-6-1.6-9.1 6.6-4.9 7.5-9a5.7 5.7 0 0 0-.8-4.6c-.5-.7-1.8-1.2-2.1-1.9s.7-2.2 1.2-2.9 3.5-3.5 5.2-5.2a43.4 43.4 0 0 0 4.7-4.9 5.1 5.1 0 0 0 1.1-4.7c-.6-1.8-3.3-2.2-2.8-4.3s2.7-3.2 4.2-4.4a6.5 6.5 0 0 0 2.7-4.6 3.2 3.2 0 0 0-.6-2.3 8.6 8.6 0 0 1-.7-1c0-.5.5-.9.7-1.2s.3-2.6-1.1-3.5 0-4 1.5-4.9a41.7 41.7 0 0 0 4-3 8.2 8.2 0 0 0 .5 3.8c.8 1.8 2.1 2.8 3.5 4.1 4.1 3.9-2.8 7.5-4.9 10.1a6.6 6.6 0 0 0-1.6 5 6.1 6.1 0 0 0 1.1 2.3c.7.8 1.7 1.5 1.6 2.6s-2.2 3.7-2.9 5.5-.6 3.5.8 4.6 2.3 1 2 2.3a5.6 5.6 0 0 1-2.2 2.8 13.5 13.5 0 0 1-6.6 3.1 1 1 0 0 0 .3 2l2.4-.3a1 1 0 0 0 .5-.4 188.1 188.1 0 0 0-6.8 31.5 30.3 30.3 0 0 0-3.1-4.2c-1.2-1.7-1.8-3.7 0-5.2s2.5-1.8 2.5-3.6-.6-2-.6-3.1a7.3 7.3 0 0 1 .8-3.6c.5-1 1.1-1.9 1.7-2.9a4.5 4.5 0 0 0 1.2-2.5 3.5 3.5 0 0 0-2.1-3.2c-.6-.5-1.7-.9-1.8-1.8s1.3-2.7 2.1-3.6 3.9-4.4 5.8-6.7-.6-2.4-1.5-1.4l-5.4 6.3c-1.3 1.6-3.6 3.6-2.9 6s1.9 2.2 3.2 3.2.6 1.4 0 2.4a23.9 23.9 0 0 0-2.1 3.4 8.7 8.7 0 0 0-.6 6.5c.4 1.3.1 1.8-.9 2.6a6.5 6.5 0 0 0-1.9 1.8c-1.1 1.7-.7 3.8.2 5.5s3.1 3.3 3.8 5.5-1.2 4.9-1.2 7.4a5 5 0 0 0 .5 2.7c-.9 3.1-1.7 6.2-2.5 9.4-.3 1.3 1.6 1.8 1.9.6.7-2.8 1.4-5.6 2.2-8.3l.6.2c1.2.5 1.7-1.4.5-1.9l-.5-.3c.4-1.4.8-2.8 1.3-4.2s5.9-3 8.8-3.9l11.1-3.4 16.6-5.1c-.5 9.4-4.6 18.4-3.9 28 .1 1.3 2.1 1.3 2 0-.7-9.7 3.6-18.9 4-28.6l3.5-1.1a1.1 1.1 0 0 0 .1-1.9zm-24.1-66a2.6 2.6 0 0 1 1.9.5c1 .8 2-.9 1-1.7a3.8 3.8 0 0 0-2.5-.8c-.1-2.4.8-4.7 1.4-6.9a15.9 15.9 0 0 0 .2-7.5 10.3 10.3 0 0 1-.3-4.3 12.9 12.9 0 0 1 1.2-3.8c.9-2.1 1.9-4.1 2.6-6.3a35.9 35.9 0 0 1 1.7 10.8c0 1.5.2 3.8-.9 5s-2.3 1.5-2 3.1 1.8 1.8 1.9 3.4-.9 3.3-1.3 4.9c-.9 3.2.7 5.2 2.7 7.5a18.8 18.8 0 0 1 1.2 1.8 4.9 4.9 0 0 1 .2 2.7.6.6 0 0 0 .1.4h-.1a82.4 82.4 0 0 0-9-8.8z"/><path fill="teal" d="M64.4 177.5c1.1-3.5 2.5-6.9 3.2-10.5.3-1.3-1.7-1.8-1.9-.6-.7 3.7-2.2 7.1-3.2 10.6a59.5 59.5 0 0 0-2.2 11 143.3 143.3 0 0 0-.1 22.7c.1 1.2 2.1 1.3 2 0-.3-7.4-.7-14.9.1-22.3a52.4 52.4 0 0 1 2.1-10.9zM104.9 22a3.5 3.5 0 0 1 2.2 1.4 1 1 0 0 0 .4.5 19.9 19.9 0 0 1 1.2 1.9 1 1 0 0 0 1.8-.2 2.8 2.8 0 0 0-1.7-3.3 7.2 7.2 0 0 0-2.1-1.8 6.9 6.9 0 0 0-5.8.2c-1.9.9-3.5 2.4-5.3 3.5s-4.6 1.1-7 .8a1 1 0 0 0-.3 2l1.8.5a.9.9 0 0 0 .9-.3 9.6 9.6 0 0 0 3.4-.4.8.8 0 0 0 0 .7 3.7 3.7 0 0 0 3.6 2.6 4.3 4.3 0 0 0 2.3-1 8.2 8.2 0 0 0 1.2-2 .9.9 0 0 1 1.2-.5c.6.2.9 1 1.2 1.4a3 3 0 0 0 2 1h1.5a1.2 1.2 0 0 0 1.4.4c.4-.3.7-1 .4-1.4a2.7 2.7 0 0 0-1.9-1c-.5-.1-1.2.1-1.7-.2s-.7-1.2-1.2-1.6a3.2 3.2 0 0 0-2-.8 3.2 3.2 0 0 0-2.1.8c-.6.6-.7 1.4-1.1 2a1.7 1.7 0 0 1-2.9-.3.9.9 0 0 0-.6-.7 18.7 18.7 0 0 0 3.8-2.4c1.5-1 3.4-2.2 5.4-1.8zM83.7 172.9c1.2-1.7 1.4-3.8 1.6-5.8a10.4 10.4 0 0 1 1.1-3.4 5.5 5.5 0 0 0 .9-3.3 9.6 9.6 0 0 1-.3-3.4 11.7 11.7 0 0 1 1.2-3.1 45.9 45.9 0 0 0 3.2-5.7 18.6 18.6 0 0 0 1.3-4.6 25.8 25.8 0 0 0 10.5 3.3 5.7 5.7 0 0 0 .1 1.3c.1 1.2 2.1 1.2 2 0a4.5 4.5 0 0 1-.1-1.1h1.3v.5c.1.6.3 1.1.4 1.7a2.2 2.2 0 0 1-.7 2.4 8.4 8.4 0 0 1-4.1 2.8c-1.3.4-2.8.4-3.7 1.5a7.2 7.2 0 0 0-.7 4.3 17.6 17.6 0 0 0 .7 4.5l-3.5.8a7.3 7.3 0 0 0-3.5 1.2c-1.7 1.6-.7 4.1-1.6 5.9-1.8 3.4-6 4.9-6.3 9-.1 1.3 1.9 1.3 2 0s1.4-2.9 2.5-4a16.5 16.5 0 0 0 3.3-3.7 8.5 8.5 0 0 0 .9-2.2 10.9 10.9 0 0 1 .3-3.1c.5-1 2.4-1.1 3.4-1.3l4.1-.9h.3a7.3 7.3 0 0 0 1.2 6.6c.8 1 2.2-.4 1.4-1.4a6.1 6.1 0 0 1-.1-6.4 15.1 15.1 0 0 1 4.7-4.7c2.1-1.6 4.3-3.1 6.5-4.6s2.9-2.1 2.9-4.1-1.7-3.6-1.4-5.4 1.7-2.3 2.8-3.1a10 10 0 0 0 2.9-2.9c.8-1.7.2-3.3-.6-4.8s.3-5 2.2-7 4.2-4 6.3-6.1a1 1 0 0 0-1.4-1.4l-6.1 5.8a15.9 15.9 0 0 0-2 2.4c.4-2.3-.3-5.4 1.7-6.9s3.8-1.3 5.6-1.9 3.8-2 4.2-4.3-.1-3.4.3-5.1a12.7 12.7 0 0 1 2.2-4.7c.8-1.1-1-2.1-1.7-1a13.8 13.8 0 0 0-2.8 8.3c0 1.2.3 2.7-.6 3.7a6.2 6.2 0 0 1-2.7 1.3c-1.9.5-3.9.8-5.6 2s-2.3 3.9-2.3 6.3-.1 2.6-.9 3.6a8.8 8.8 0 0 1-2.9 1.8 7 7 0 0 0-2.6 1.9 5.7 5.7 0 0 0-1.1 3.6c-.2 2.7-2.1 4.3-3.2 6.7l-.3.5H105c-.6-6.2-.4-13.1 4.9-17.1 1.1-.9 2.3-1.6 3.3-2.5a9 9 0 0 0 2.5-3.6 8.1 8.1 0 0 1 1.9-2.9c1-.7 2.4-.4 3.5-.8s2.1-1 2.1-2-.5-1-.7-1.4a6.8 6.8 0 0 1-.3-1.9 5.3 5.3 0 0 1 4.4-5.3 8.9 8.9 0 0 0 3.6-1.1c1.4-1 1.8-2.5 2.5-3.9s3.6-4.8 5.3-7.2a17.9 17.9 0 0 0 3.5-10.2c.1-3.9-.9-7.8-1.8-11.6a.5.5 0 0 0-.2-.4c.8-3.4 1.7-6.7 2.7-10 2.2-7.3 4.4-16.1-1.1-22.5-2.4-2.9-6.1-4.7-9.4-6.3a15.3 15.3 0 0 0-5.9-1.6c-2.1 0-4.3.4-6.4.1-4.1-.5-7.9-2.5-12-2.2s-7.3 1.9-11 2.6A8.3 8.3 0 0 1 91 33c-1.2-.5-2.2 1.2-1 1.7 2.8 1.3 5.5 1 8.3.3a93.8 93.8 0 0 0-10.2 16.8 1 1 0 0 0-.6 1.2c0 .2-.1.3-.2.5-3.2 7.5-5.9 15.7-6.4 23.9s2 17.7 4.9 26.1l2.2 6.1a6.3 6.3 0 0 0 2.9 3.5l1.7 6.2a1 1 0 0 0-1.4.9c.1 2.6-.8 4.5-2.1 6.7a4.9 4.9 0 0 0-.8 2.3 5.6 5.6 0 0 0 .9 3.1 19.2 19.2 0 0 1 1.8 7.5l-1.3-1.4a1 1 0 0 0-1.4 1.4 15.2 15.2 0 0 0 2.6 2.5 17 17 0 0 1-.6 3.1 22.2 22.2 0 0 1-2.8 5.8 15 15 0 0 0-2.4 5.3 8.2 8.2 0 0 0-.1 2.7 6.4 6.4 0 0 1 .3 2 7.7 7.7 0 0 1-.8 1.9c-1 1.9-1.1 3.9-1.4 6s-2.6 4.7-5.1 5.9a20.6 20.6 0 0 0 1.4-4.6c.7-3.8 1.1-7.9 3.3-11.2.8-1.1-1-2.1-1.7-1-3.6 5.3-2.4 12.6-5.6 17.9l-1.7.6a1 1 0 0 0-.2 1.8c-2.3 2.3-5 4.6-4.7 8.1a3.9 3.9 0 0 0 .6 2.1c.3.6 1.5 1.2 1.3 2a5.7 5.7 0 0 1-1.2 1.5 4.4 4.4 0 0 0-.8 1.1c-.9 1.1-1.7 2.1-3.3 1.8s-1.8 1.7-.5 1.9a4.8 4.8 0 0 0 2.9-.2 6.6 6.6 0 0 0 2.3-2.1c1-1.3 3.3-3.2 2.6-5.1s-1.2-1.2-1.6-1.9a3.6 3.6 0 0 1-.2-2.5c.4-2.1 2.2-3.5 3.6-4.9a16.4 16.4 0 0 0 2.1-2.5c2.7-1 5.5-2.3 7.1-4.9zm30.3-19.5l-3.4 2.5a66.2 66.2 0 0 0-6.3 4.5 13.6 13.6 0 0 0-3.6 4.9 15.8 15.8 0 0 1-1-4.8 16.2 16.2 0 0 1 0-2.2c.1-1 .5-1.3 1.4-1.5a11.4 11.4 0 0 0 6.8-4 3.9 3.9 0 0 0 1.1-3.2c-.1-.9-.4-1.7-.5-2.5a28.6 28.6 0 0 0 4.2-.3 1 1 0 0 0 .9-.6c-.2 1.6.6 3 1.1 4.5a2.2 2.2 0 0 1-.7 2.7zm-1.9-13.3c.4-1.3 0-3 .7-4.3a6.8 6.8 0 0 1 2.6-1.8 12.4 12.4 0 0 0 2.9-2 4.3 4.3 0 0 0-.1.5 5.7 5.7 0 0 0 .2 2.9c.4 1.1 1.3 2.2 1.2 3.4s-1.8 2.4-2.9 3.2a7.6 7.6 0 0 0-3 3.4v.2a1 1 0 0 0-1-.8 21 21 0 0 1-3.6.3c.9-1.7 2.4-3.1 3-5zm19.8-40a15.9 15.9 0 0 0-1.3 2.2 7 7 0 0 1-1.3 2.4c-1.1.9-2.9.9-4.3 1.3a42.7 42.7 0 0 0 9.3-14.7 5.9 5.9 0 0 0 3.5.5 30.4 30.4 0 0 1-2.9 4.4c-1 1.3-2.1 2.5-3 3.9zm7.5-14.2a11.7 11.7 0 0 1-.7 3.8c-.2 0-.4-.1-.6 0l-.6.2H136l-.5-.2h-.2l-.2-.2h-.1c0-.2.1-.3.1-.4a122.1 122.1 0 0 0 3.4-11.8 31.8 31.8 0 0 1 .9 8.6zM100 58.2a38.8 38.8 0 0 1-4.5-2.4l-1.1-.8 2.7 1.1c.8.4 5.7 2.7 6 4.2a33.7 33.7 0 0 1-3.1-2.1zm-10.6 49.2C86.5 99.5 83.6 91.5 83 83s1.4-16.1 4.2-23.7c.5-1.5 1.1-2.9 1.7-4.4a.9.9 0 0 0 .9-.7 11.5 11.5 0 0 1 1.5.8l1.6 1.3a17.2 17.2 0 0 0 3.4 2.4 26.9 26.9 0 0 1 3.8 1.9 9.4 9.4 0 0 0 3.3 2 .9.9 0 0 0 1-.3c2.7-3.3-3-6.3-5.4-7.5a44 44 0 0 0-5-2.1 16.5 16.5 0 0 0-3.6-1.1 92.2 92.2 0 0 1 7.5-12.9l3.5-4.6c.1 0 .1 0 .1-.1 2.9-.8 5.7-1.6 8.7-1.2s7.3 2.3 11.2 2.2c2.1 0 4.3-.4 6.4.1a21.4 21.4 0 0 1 5.4 2.3c3.2 1.7 6.4 3.7 8.1 7.1s1.6 7.4.9 11.1-2.4 8.2-3.5 12.3-2 8.2-3.1 12.3-1.5 5.6-2.5 8.4l-.3.2a.9.9 0 0 0-.2 1.1 43.2 43.2 0 0 1-6 11.2 29.3 29.3 0 0 1-17.7 11.1 34.4 34.4 0 0 1-10.6.5 24.4 24.4 0 0 1-5.4-.9c-2.3-.7-2.8-2.4-3.5-4.4zm3 27.8a20.9 20.9 0 0 0-1.3-3.5 7.7 7.7 0 0 1-.8-1.9 2.9 2.9 0 0 1 .8-2.2 14.6 14.6 0 0 0 2.1-5.8c.2 1.1.5 2.1.8 3.3s.9 4 1.4 6a24.7 24.7 0 0 0 .6 2.9c.2.8.4 1.3 1.2 1.6a1 1 0 0 0 1-.3h.1a1 1 0 0 0-.4-1.6c0-.3-.2-1-.2-1.1l-.3-1.5-.6-2.5-1.2-5.4-2.4-9.2a35.2 35.2 0 0 0 9.1.9 34.2 34.2 0 0 0 18.9-5.8 7.3 7.3 0 0 0-.2 7c-.7.6-3 .5-3.7.8a5.5 5.5 0 0 0-2.6 2.6 18.7 18.7 0 0 1-2.2 3.9 25.1 25.1 0 0 1-4.1 3.2c-5.5 4.5-5.9 11.7-5.4 18.3a21.9 21.9 0 0 1-10-3.6 21.1 21.1 0 0 0-.6-6.1z"/><path fill="teal" d="M86 47.8c1-.8-.5-2.2-1.4-1.4s-4.6 4.3-4.9 7.3a7.7 7.7 0 0 0 1 4.2c.6 1.8-.1 3.4-.9 4.9-1.6 3-3.3 5.8-4 9.2a5.8 5.8 0 0 0 .1 4.3c.6 1.4 2.1 2.5 2.3 4.1a15.5 15.5 0 0 1-.7 4.3 10.9 10.9 0 0 0 .1 4.4c.4 1.5 1.3 2.9 1.4 4.5s-.7 2.8-1.4 4.1-2 4.9-.9 7.5 3.2 4.5 4.6 6.9c4.5 7 1.6 15.6-.9 22.8-.5 1.2 1.5 1.7 1.9.5 2.2-6.3 4.5-13.1 2.7-19.9a21.1 21.1 0 0 0-4.1-7.3c-1.8-2.3-3.5-4.7-2.3-7.7s2.7-4.8 2.3-7.6a21.6 21.6 0 0 0-1.4-4.3 9.8 9.8 0 0 1 .2-4.5 11.2 11.2 0 0 0 .4-4.1c-.2-1.5-1.1-2.5-2-3.7s-.6-3.3-.1-5a22.8 22.8 0 0 1 2.1-5.1c1.7-2.9 3.7-5.8 2.3-9.2-.7-1.9-1.1-3.3 0-5.2a17 17 0 0 1 3.6-4zM73.6 152.5c2.6-2.5 6.2-5.2 7.1-8.8s-1.5-7.2-2.3-10.9c-.2-1.2-2.1-.7-1.9.6.6 3.1 3.1 6.4 2.3 9.7a9.4 9.4 0 0 1-2.5 4l-2.8 2.8a1.1 1.1 0 0 0-1.5-.6c-3.6 2-2.2 6.6-1.4 9.7l1.7 6.6c.4 1.9 1.2 4.1.4 6s-3.9 3.9-5.7 5.8a7.9 7.9 0 0 0-2 3.4 10.8 10.8 0 0 0 .6 5.9c.4 1.2 2.3.7 2-.5s-1.2-3.9-.4-5.7a8.5 8.5 0 0 1 2.3-2.7c1.8-1.7 4-3.1 5.1-5.5s-.4-7.1-1.2-10.3-1-3.9-1.4-5.8a6.1 6.1 0 0 1 0-4 1 1 0 0 0 1.6.3zm60.1-125.1a7.4 7.4 0 0 0 2.6-4.5c.7-3.8-1-9.3-5.7-9.1a1 1 0 0 0 0 2c4.1-.2 4.6 5.9 3.1 8.6a4.3 4.3 0 0 1-1.5 1.5c-.7.4-1.5.7-1.8 1.6s.2 1.9.5 2.8l1.2 3.2c.5 1.2 2.4.7 2-.5a30.4 30.4 0 0 1-1.3-3.5c-.2-.4-.6-1.2-.4-1.5z"/><path fill="teal" d="M118.2 7.4a5.5 5.5 0 0 1 8.9 3c.2.8.2 1.6.9 2.2a2.7 2.7 0 0 0 2 .2 9.8 9.8 0 0 1 2.9-.5 13.1 13.1 0 0 1 3.4.9l3 1.4a2.1 2.1 0 0 1 1.3 2.3 21 21 0 0 1-1.4 6.6c-1.3 3.9-2.6 8.2-1 12.2.5 1.2 2.4.7 2-.5-1.6-3.8-.2-7.7 1-11.4a25.9 25.9 0 0 0 1.3-5.5c.2-1.5.3-3.3-.8-4.4s-2.9-1.8-4.3-2.4a14.1 14.1 0 0 0-5.3-1.2l-1.3.2-1.2.3c-.5 0-.3 0-.4-.5s-.2-.9-.4-1.3a6.8 6.8 0 0 0-2.6-3.4 7.4 7.4 0 0 0-9.4.4c-1 .8.4 2.2 1.4 1.4zM145.7 37a1 1 0 0 0 1.5-.2c1.3-2.2 4-3 5.7-4.8s2.2-5.5 1.2-8.4a1 1 0 0 0-1.9.6 7.7 7.7 0 0 1 .5 4 5.1 5.1 0 0 1-1.9 2.9c-1.8 1.6-4.1 2.6-5.3 4.7a.1.1 0 0 0-.1.1 7.2 7.2 0 0 1-.6-2.9 2.3 2.3 0 0 1 .3-1.8 10 10 0 0 1 1.1-1 10.5 10.5 0 0 0 3.3-5.1 7.6 7.6 0 0 0-4.3-9.3 1 1 0 0 0-.6 1.9 5.3 5.3 0 0 1 3.1 4 6.9 6.9 0 0 1-1.3 5.4c-1.1 1.5-3.1 2.4-3.5 4.2a9.2 9.2 0 0 0 1 6.1 1 1 0 0 0 1.8-.4zm9.3 47.7l-1.8 6a1 1 0 1 0 1.9.5c.7-2.1 1.3-4.3 2-6.4a39.8 39.8 0 0 0 1.7-5.9c.5-3.6-2.5-4.9-4.6-7.1s-1.9-6.8-2.5-10.1a22.7 22.7 0 0 0-4.4-10.2c-.7-1-2.5 0-1.7 1a22.1 22.1 0 0 1 4.2 10c.5 3.1.1 6.7 1.9 9.5s5.6 3.6 5.1 6.8a57.6 57.6 0 0 1-1.8 5.9z"/><path fill="teal" d="M148.9 89.6c.2 1.3 2.1.8 2-.5-.7-4.4 1.3-9.5-2.1-13.1a6.3 6.3 0 0 0-2.4-1.6c-1.4-.7-1.2-2-1.1-3.3l.6-8.4c.1-1.3-1.9-1.3-2 0l-.6 8.4a6.6 6.6 0 0 0 .3 3.4 3.8 3.8 0 0 0 2.3 1.8c2.1 1 2.9 3.2 3 5.4s-.4 5.3 0 7.9zm-13.6 0zm-26.8 80a3.5 3.5 0 0 0-1.5-1.9c2-1.7 3.4-4.2 5.7-5.5s3.2 0 4.6-1.1 1.4-2.5 2.3-3.7 1.2-1 1.7-1.6a2.6 2.6 0 0 0 .2-2.4c-.3-1-.9-1.8-.2-2.8a5 5 0 0 1 2.4-1.9 9.7 9.7 0 0 0 3.9-3 5.2 5.2 0 0 0 .1-4.4c-1-2.4-4-5.7-.7-7.7s5.2-1.6 6.9-3.7.9-3.2 1-4.9 2-3.7 2.6-5.8a3.7 3.7 0 0 0-1.1-4.3c-.5-.5-1.3-.8-1.8-1.3s.1-2 .5-2.8c1.9-3.2 5.2-5.3 7.5-8.2a10.8 10.8 0 0 0 2.5-5 18.5 18.5 0 0 0-.4-7.4c-.2-1.2-2.2-.7-1.9.5s.9 4.7.3 7a11.2 11.2 0 0 1-2.5 4.2c-2.1 2.4-4.7 4.3-6.6 7-.8 1.2-1.8 2.9-1.6 4.4s1.6 2.2 2.7 3.1-.5 3.9-1.3 5.3a7.5 7.5 0 0 0-.8 2.4c-.2 1.1 0 2.2-.1 3.3-.5 2.6-4.2 3.2-6.3 4.2a4.9 4.9 0 0 0-2.8 6.4c.5 1.4 1.5 2.6 2 4.1s0 3.1-1.7 4.1-3.2 1.5-4.3 3a3.9 3.9 0 0 0-.8 2.1 6.4 6.4 0 0 0 .5 2.4c.4 1.3-.9 1.6-1.5 2.5a9.1 9.1 0 0 0-1.1 2.2 2.1 2.1 0 0 1-2.1 1.4 7.3 7.3 0 0 0-2.5.4c-3.2 1.4-4.6 5-7.7 6.7a1 1 0 0 0 0 1.7c1 .5 2.5 1.3 1.9 2.6a14 14 0 0 1-2.7 3.3c-2 2.4-4 4.7-6.1 7a1.1 1.1 0 0 0 .5 1.7c1.2.2 4.3.7 3.8 2.7s-1 .9-1.4 1.3a3.7 3.7 0 0 0-1.2 1.3c-.6 1.1 1.1 2.1 1.7 1s1.6-1.2 2.2-1.9a2.8 2.8 0 0 0 .7-1.9 3.3 3.3 0 0 1 1.1 3.2 5.2 5.2 0 0 1-3 3.6 1.1 1.1 0 0 0 0 1.8 2.4 2.4 0 0 1 .9 3.1c-.5 1.2-1.9 1.7-2.9 2.2s-2.5.9-2.3 2.3a4.6 4.6 0 0 0 .8 1.9l1.6 2.6c.7 1.1 2.4.1 1.7-1l-1.5-2.6-.5-.7c-.1-.2-.1-.3.2-.4l.8-.3a8.9 8.9 0 0 0 3.4-2.3 4.2 4.2 0 0 0-.1-5.5 6.7 6.7 0 0 0 3-4.7 5.6 5.6 0 0 0-3-5.5 1.2 1.2 0 0 0-1 0 5.8 5.8 0 0 0-2.9-1.8l7.1-8.1a4 4 0 0 0 1.1-3.9z"/><path fill="teal" d="M119.1 195.7c-3.8-2-8.4-5.5-5.9-10.3s6.9-6.4 7.7-11.2a6.5 6.5 0 0 0-.1-3.1c-.4-1.1-1-2.1-1.3-3.2s.4-2.7 1.3-3.9l2.7-3.2a155.1 155.1 0 0 1 11.2-11.8c1.8-1.8 3.6-3.5 3.5-6.3s-1.5-4.9-.8-7.4a1 1 0 0 0-2-.5c-.6 2.3.2 4.4.6 6.7a4.7 4.7 0 0 1-.4 3.5 13.8 13.8 0 0 1-2.9 3c-4.1 4.1-8 8.3-11.7 12.7-1.5 1.7-3.7 3.8-3.7 6.3s2.2 4.5 1.6 7.2c-1.2 4.9-6.8 7.2-8.2 12s3.3 9 7.4 11.2c1.1.6 2.1-1.1 1-1.7zm-21.3-17.8a4.6 4.6 0 0 0-1.4-1.7l-.7-.5-.7-.6c-.4-.3-.4-.6-.1-.9s2.1-.9 1-1.7-3.2.4-3.2 1.9 1.7 2.5 2.8 3.6l-10.4 5.3a1 1 0 0 0 0 1.7 15.3 15.3 0 0 0-7.6 4.8c-.9 1-2.9 3.1-1.7 4.5a7.1 7.1 0 0 0 2.5 1.1l2.4.8a5.8 5.8 0 0 0-.5 1.4c-.3 1.2 1.7 1.8 1.9.5a4.5 4.5 0 0 1 .8-1.7 1 1 0 0 0-.4-1.7l-2.6-.9-1.3-.4a3 3 0 0 0-1-.4l.2-.2a3.5 3.5 0 0 1 .5-.8 8 8 0 0 1 1.5-1.7 13.1 13.1 0 0 1 7.7-3.8 1 1 0 0 0 .5-1.9l-.5-.3 9.9-5a1 1 0 0 0 .4-1.4z"/><path fill="teal" d="M95.1 182.3a30.1 30.1 0 0 1-5.3 9.4c-1.2 1.6.4 2.6 1.5 3.6a8.5 8.5 0 0 0 1.9 1.4h.6l.2.3a1.4 1.4 0 0 1-.2 2c-1.4 1-3.7 1.2-5.4 1.3a1 1 0 0 0-.7 1.7 4.7 4.7 0 0 0 5.8.6 1.1 1.1 0 0 0 .3-1.4 3.8 3.8 0 0 0 2.2-1.9 3.5 3.5 0 0 0-.3-3.4 3.7 3.7 0 0 0-1.7-1.6h-.6l-.3-.3-1.4-1.3h-.1c.2-.1.5-.8.7-1a30.4 30.4 0 0 0 4.7-8.9 1 1 0 0 0-1.9-.5zm-2.3 13.6zm20.4 9.9h-1.5a9 9 0 0 0 1.6-2.9 5.4 5.4 0 0 0-.4-5.6 20.3 20.3 0 0 0-2.3-1.8 3.2 3.2 0 0 1-1-1c-.1-.3 0-.8.4-.8s1.3-1.9 0-2a2.6 2.6 0 0 0-2.4 1.9 3.3 3.3 0 0 0 1 2.8c.9.9 2.1 1.4 2.9 2.3a3.5 3.5 0 0 1 .1 3.3 9.5 9.5 0 0 1-1 1.7 9.5 9.5 0 0 0-1 1.7 1.9 1.9 0 0 0 1.2 2.3l1.4.2h.9a2 2 0 0 0-.4.8 1.5 1.5 0 0 0 .4 1.4 1.1 1.1 0 0 0 1.7-1.2h.1a1.3 1.3 0 0 0 .4-.6 1.4 1.4 0 0 0-.1-1.1 2.4 2.4 0 0 0-2-1.4zm17.4-11.8c-.6-1.5-2-2.3-3.4-3s-1.8-.5-2.3-1.1 0-1.3.3-1.9a3.7 3.7 0 0 0 .7-3.4c-.4-1.3-1.6-1.9-2.6-2.8s-.9-3.2-.6-4.9l1.5-5.7c.3-1.3-1.7-1.8-2-.6l-1.5 6.2a9 9 0 0 0 0 4.6c.5 1.4 1.6 2.1 2.7 3s.1 2.3-.5 3.7c-1.7 3.8 3.6 4 5.4 5.9s0 3.8-.2 5.5a15.6 15.6 0 0 0 .4 6.1c.3 1.2 2.2.7 1.9-.6a14 14 0 0 1-.2-6.1c.3-1.7 1.2-3.3.4-4.9zM114.2 17.9a1.1 1.1 0 0 0-1.4.3 1.1 1.1 0 0 0 .4 1.4c4.6 2 7.3 6.6 9.6 10.9.6 1.1 2.3.1 1.7-1-2.5-4.5-5.3-9.5-10.3-11.6z"/></svg>