<svg xmlns="http://www.w3.org/2000/svg" id="Layer_1" viewBox="0 0 72 24.5" width="72" height="24.5"><style>.st0{fill:#176533}</style><path d="M3.9 15.6l3.9-2.1c1.3-.7 2.9-1.9 4.5-1.6 2.5.4 3.9 2.7 5.9 4 2 1.3 3.9 1.2 6 .3 1.9-.9 3.9-2.7 6-2.8 2.4-.2 4.8 1.8 7.1 2.5 2.4.7 4.2.2 6.4-.9 1.1-.6 2.1-1.3 3.2-1.7 1.2-.5 1.9-.3 3 .2 1.6.8 3.9 2.2 5.8 1.8 2-.4 3.5-1.9 5.5-2.2 2.5-.4 4.9 1 6.7 2.5 1.3 1 3-.8 1.8-1.8-3.4-2.7-7.3-4.3-11.5-2.4-.9.4-1.7 1-2.6 1.3-1.1.4-2.3-.4-3.3-.9-.8-.4-1.6-.9-2.5-1.2-1.2-.5-2.6-.3-3.8.2-2.1.8-4.3 3-6.6 2.9-2.6-.1-4.8-2.1-7.3-2.7-2.5-.6-4.4.4-6.5 1.6-1 .6-2 1.2-3.2 1.6-1.3.4-2.1 0-3.2-.7-1.1-.8-1.9-1.8-2.9-2.6-1.1-.8-2.6-1.4-4-1.6-1.6-.2-3 .6-4.4 1.3-1.7.9-3.5 1.9-5.2 2.8-1.5.8-.2 2.9 1.2 2.2z" class="st0"/></svg>